<svg width="16" height="4" viewBox="0 0 16 4" fill="none" xmlns="http://www.w3.org/2000/svg">
<path d="M8 2.83332C8.46024 2.83332 8.83333 2.46023 8.83333 1.99999C8.83333 1.53975 8.46024 1.16666 8 1.16666C7.53976 1.16666 7.16667 1.53975 7.16667 1.99999C7.16667 2.46023 7.53976 2.83332 8 2.83332Z" stroke="#86949E" stroke-width="2" stroke-linecap="round" stroke-linejoin="round"/>
<path d="M13.8333 2.83332C14.2936 2.83332 14.6667 2.46023 14.6667 1.99999C14.6667 1.53975 14.2936 1.16666 13.8333 1.16666C13.3731 1.16666 13 1.53975 13 1.99999C13 2.46023 13.3731 2.83332 13.8333 2.83332Z" stroke="#86949E" stroke-width="2" stroke-linecap="round" stroke-linejoin="round"/>
<path d="M2.16667 2.83332C2.6269 2.83332 3 2.46023 3 1.99999C3 1.53975 2.6269 1.16666 2.16667 1.16666C1.70643 1.16666 1.33333 1.53975 1.33333 1.99999C1.33333 2.46023 1.70643 2.83332 2.16667 2.83332Z" stroke="#86949E" stroke-width="2" stroke-linecap="round" stroke-linejoin="round"/>
</svg>
